<svg width="96" height="96" viewBox="0 0 96 96" fill="none" xmlns="http://www.w3.org/2000/svg">
<rect width="96" height="96" fill="white"/>
<path fill-rule="evenodd" clip-rule="evenodd" d="M62.489 25.6165C60.481 26.8411 57.4527 31.8939 55.2324 37.7252C53.4084 42.5156 53.4301 42.4693 53.1528 42.174C53.0137 42.026 52.8447 39.532 52.7772 36.6317C52.6507 31.1732 52.4751 30.411 51.3446 30.411C50.1737 30.411 50.1253 30.8708 49.911 44.056L49.8526 47.6421L49.8272 49.2022L49.7026 56.8559L48.7261 58.0888C47.0952 60.1479 46.4491 61.9275 46.473 64.2952C46.4999 67.005 47.3877 69.3372 49.13 71.275C50.9206 73.2666 52.3999 73.82 55.4444 73.6373C60.287 73.3472 63.5073 70.3674 65.5416 64.2952C66.2091 62.3033 66.3446 61.3617 66.359 58.6229C66.3736 55.8011 66.2619 55.0079 65.5666 52.9865C65.1212 51.6926 64.7955 50.6003 64.8424 50.5588C64.8896 50.5176 65.5998 50.3361 66.4208 50.1555C67.2417 49.9749 71.0785 48.4633 71.4355 48.3621L71.2863 47.765L64.1384 49.5632L62.5627 48.0732C61.6244 47.1856 60.4861 46.4327 59.7484 46.2118C59.0669 46.0076 58.5095 45.7356 58.5095 45.6075C58.5095 45.4795 59.2943 44.3253 60.2538 43.0428C61.2131 41.76 62.4642 39.9045 63.0338 38.9194C65.4831 34.6831 67.3552 29.0374 66.962 27.0721C66.5921 25.223 64.3379 24.4892 62.489 25.6165ZM57.8802 41.5776C61.3823 36.3621 64.4803 29.7238 64.4803 27.4352C64.4803 26.1706 63.8883 26.2831 62.475 27.8161C60.2843 30.1931 57.8727 34.9387 55.493 41.5564C53.3919 47.3991 53.9678 47.4041 57.8802 41.5776ZM61.1521 49.2043C60.7784 48.5395 60.0487 47.7331 59.5305 47.4131C58.5387 46.7999 57.5634 46.705 56.569 47.1244C56.2406 47.2629 55.485 47.3062 54.89 47.2205L53.8078 47.065L53.4916 48.515C53.0576 50.5042 52.7805 54.2941 53.0689 54.2941C53.1985 54.2941 54.1735 53.8341 55.2354 53.2716C56.9171 52.3811 58.1277 51.8503 61.1408 50.6812L61.8316 50.4134L61.1521 49.2043ZM63.1135 58.3244C63.1186 56.0594 62.9574 53.7908 62.7266 52.876C62.4481 51.7727 62.1851 51.3105 61.8382 51.3147C61.1035 51.324 54.8619 54.4347 53.8209 55.3106C52.9474 56.0456 52.9131 56.1707 52.7713 59.1155C52.6405 61.8307 52.5507 62.22 51.9428 62.7123C51.3595 63.1846 50.3961 63.2228 49.9041 62.7926C49.7629 62.6693 49.6059 61.7418 49.5521 60.7127L49.505 59.8171L48.9216 61.0112C48.0669 62.7613 48.2663 66.4169 49.33 68.4935C50.7526 71.2714 53.4851 73.0844 55.6402 72.6802C58.4035 72.1617 60.4661 69.6859 62.1782 64.8319C63.0294 62.4188 63.1055 61.8898 63.1135 58.3244Z" fill="black"/>
<path fill-rule="evenodd" clip-rule="evenodd" d="M38.2769 20.1037C33.3937 22.377 27.2343 31.5953 25.2057 39.6657C24.3871 42.9228 24.4053 48.0457 25.2412 49.6668C26.0646 51.2633 27.6325 52.044 29.999 52.036C32.1408 52.0288 33.1803 51.5368 35.6713 49.3509C37.3422 47.8845 38.0841 47.0438 41.6486 42.5765C42.4018 41.6322 43.1371 40.8599 43.2822 40.8599C43.4276 40.8599 43.3607 41.431 43.1335 42.1287C42.9067 42.8263 42.1785 45.1505 41.5158 47.2931L40.3106 51.189L37.3938 53.0889C33.9735 55.3172 28.7443 60.4213 27.1996 63.0392C25.0672 66.6536 24.108 70.6305 24.7734 73.0994C25.7619 76.7663 28.5971 77.6252 32.0915 75.316C35.3587 73.157 37.7551 68.6473 41.159 58.2527L43.4816 51.1595L45.0994 50.5248C45.9894 50.1758 47.0722 49.8074 47.5056 49.7065L49.8272 49.2022L49.8526 47.6421C49.6591 47.6421 47.5182 48.3421 46.3336 48.7302C45.149 49.1183 44.1796 49.3306 44.1796 49.2022C44.1796 49.0736 44.7701 47.1775 45.492 44.9887C48.1735 36.8571 48.8246 33.8744 48.0284 33.3701C47.2241 32.8608 46.6205 33.1089 45.9673 34.2174C45.6043 34.8333 44.1922 36.8147 42.8293 38.6208C38.1868 44.7731 33.9589 49.0061 31.1556 50.3089C28.8082 51.3998 28.163 50.8776 27.8609 47.6421C27.2205 40.7852 31.3419 30.8149 37.4225 24.5089C41.5098 20.2705 44.7767 19.5723 44.7767 22.9374C44.7767 23.4461 44.5752 24.3447 44.3289 24.934C43.6715 26.507 43.7384 27.1895 44.5376 27.0733C45.4054 26.9471 46.25 25.4418 46.4599 23.6482C46.6014 22.4379 46.5181 22.0606 45.9503 21.3426C44.3761 19.3519 41.0465 18.8143 38.2769 20.1037ZM30.8836 74.3768C33.5322 71.7342 35.1727 67.9845 38.6838 56.5508C39.2355 54.7542 39.6409 53.2385 39.5848 53.1824C39.3111 52.9086 34.7921 56.2982 33.3406 57.8658C28.3529 63.2533 26.3736 67.3119 26.6187 71.6497C26.7223 73.4791 26.8384 73.8111 27.6663 74.6386C28.764 75.7364 29.5882 75.6695 30.8836 74.3768Z" fill="black"/>
</svg>
